# xmcd CD database file
#
# Track frame offsets:
#	150
#	13338
#	25901
#	40286
#	54332
#	68619
#	80586
#	95617
#	110486
#	123954
#	139826
#	153447
#	166333
#	178891
#	190015
#
# Disc length: 2719 seconds
#
# Revision: 1
# Processed by: cddbd v1.4PL0 Copyright (c) Steve Scherf et al.
# Submitted via: CDex 1.51
#
DISCID=c70a9d0f
DTITLE=Benny Moré - Serie Platino [CD2)
DYEAR=2004
DGENRE=Salsa
TTITLE0=Bonito y saboros
TTITLE1=Yo no fui
TTITLE2=Esta noche corazón (A dúo con Tony Camargo)
TTITLE3=Sopa de pichón
TTITLE4=Ahora soy tan feliz
TTITLE5=Dolor y perdón
TTITLE6=Santa Isabel de las lajas
TTITLE7=Tú sólo tú
TTITLE8=Todo lo perdí
TTITLE9=Mata ciguaraya
TTITLE10=Rabo y oreja
TTITLE11=Ya son las doce
TTITLE12=Manzanillo
TTITLE13=Babarabatiri
TTITLE14=Me voy pa'l Pueblo
EXTD=YEAR: 2004
EXTT0=
EXTT1=
EXTT2=
EXTT3=
EXTT4=
EXTT5=
EXTT6=
EXTT7=
EXTT8=
EXTT9=
EXTT10=
EXTT11=
EXTT12=
EXTT13=
EXTT14=
PLAYORDER=
